Coordinates
version=1
nRows=14
nColumns=28
inDegrees=yes

Units are S.I. units (second, meters, Newtons, ...)
Angles are in degrees.

endheader
time	pelvis_tilt	pelvis_list	pelvis_rotation	pelvis_tx	pelvis_ty	pelvis_tz	hip_flexion_r	hip_adduction_r	hip_rotation_r	knee_angle_r	ankle_angle_r	subtalar_angle_r	mtp_angle_r	hip_flexion_l	hip_adduction_l	hip_rotation_l	knee_angle_l	socket_flexion	socket_adduction	socket_rotation	socket_tx	socket_ty	socket_tz	foot_flex	lumbar_extension	lumbar_bending	lumbar_rotation
      0.31250000	      1.74273000	      0.45667916	     -3.73996697	     -0.46155916	      1.03203819	      0.29605570	     13.89711718	     -0.40814304	     -1.49386762	    -65.62069963	     10.27995190	    -12.95706478	     -5.02989404	     -0.36668485	      1.71683334	     -5.16193218	     -3.16406837	      0.48777931	      0.04571492	     15.77217130	      0.00000000	     -0.00899324	      0.00000000	     -0.90434629	    -11.83694892	     -4.55699983	      3.56188654
      0.31666667	      1.78859916	      0.45808674	     -3.65108934	     -0.45639033	      1.03262743	      0.29598141	     14.43641158	     -0.39152704	     -1.50559032	    -65.31943775	     10.34719460	    -12.95545172	     -5.02160929	     -0.73459332	      1.73431166	     -5.14162439	     -3.19794855	      0.38615692	      0.06455975	     15.80082368	      0.00000000	     -0.00863764	      0.00000000	     -0.85771382	    -11.92931852	     -4.53305128	      3.55881182
      0.32083333	      1.82195313	      0.19688861	     -3.40285114	     -0.45062719	      1.03325495	      0.29568141	     14.77650443	     -0.11282734	     -1.70880234	    -64.75681526	     11.05379190	    -12.69727647	     -4.91205743	     -1.23159904	      1.46022149	     -5.10212378	     -2.95913361	      0.46509555	      0.11221498	     16.04728573	      0.00000000	     -0.00853304	      0.00000000	     -0.58165351	    -11.92455045	     -4.18707044	      3.44194744
      0.32500000	      1.86572414	      0.18155210	     -3.33766559	     -0.44553967	      1.03372847	      0.29563019	     15.31525628	     -0.09086742	     -1.73441076	    -64.40926375	     11.11733524	    -12.66524430	     -4.90505468	     -1.59525978	      1.46168879	     -5.08515057	     -2.98707008	      0.37873517	      0.10214720	     16.07402973	      0.00000000	     -0.00828570	      0.00000000	     -0.56054695	    -12.03278829	     -4.16177058	      3.42506391
      0.32916667	      2.02157448	     -0.34436990	     -3.03472462	     -0.43953699	      1.03447340	      0.29502229	     15.39552044	      0.39079859	     -2.10172506	    -63.62767118	     11.94360582	    -11.79436083	     -4.83813501	     -2.35186598	      0.92285776	     -5.03751432	     -2.46007604	      0.59084425	      0.20141597	     16.37589192	      0.00000000	     -0.00861369	      0.00000000	     -0.43488494	    -12.16299723	     -3.41622722	      3.03484692
      0.33333333	      2.06684917	     -0.34067020	     -2.97453998	     -0.43447986	      1.03486730	      0.29501841	     15.91782950	      0.39499509	     -2.12345399	    -63.22208277	     12.00445333	    -11.78216593	     -4.83729196	     -2.71078662	      0.93752133	     -5.01841698	     -2.49249315	      0.50765127	      0.18949803	     16.39319480	      0.00000000	     -0.00834973	      0.00000000	     -0.38705332	    -12.26770938	     -3.42191138	      3.02128034
      0.33750000	      2.61915647	     -0.75175872	     -2.65241324	     -0.42860669	      1.03622139	      0.29439145	     15.52373711	      0.70749429	     -2.50446789	    -62.28916848	     12.70949426	    -11.00280524	     -5.20079069	     -4.02015961	      0.55629110	     -4.74959104	     -1.54625345	      0.98128953	      0.35511490	     16.43054690	      0.00000000	     -0.00821534	      0.00000000	     -0.17729559	    -12.86525892	     -2.82995711	      2.51675511
      0.34166667	      2.63379996	     -0.76145593	     -2.53681545	     -0.42327211	      1.03664420	      0.29435922	     15.95258019	      0.73049108	     -2.54848349	    -61.67056844	     12.90455380	    -11.02625162	     -5.20674154	     -4.38164949	      0.54989225	     -4.72456094	     -1.51344785	      0.93609354	      0.34655251	     16.48602038	      0.00000000	     -0.00785866	      0.00000000	     -0.08384185	    -12.87498008	     -2.82415111	      2.52539361
      0.34583333	      3.05029997	     -1.13893717	     -2.32984792	     -0.41765690	      1.03756399	      0.29406353	     15.79701857	      1.07331331	     -2.82821998	    -60.85021815	     13.54610225	    -10.74558828	     -6.20638433	     -5.62034534	      0.18011057	     -4.32362912	     -0.30159661	      1.58080866	      0.58293415	     16.29385712	      0.00000000	     -0.00784855	      0.00000000	      0.05179798	    -13.34360521	     -2.33228218	      2.33945933
      0.35000000	      3.04143811	     -1.15459285	     -2.22464303	     -0.41235687	      1.03787680	      0.29403530	     16.22932158	      1.09551546	     -2.88331345	    -60.15947030	     13.72690587	    -10.74925731	     -6.21051016	     -5.94356469	      0.16286990	     -4.32021054	     -0.30054871	      1.52200765	      0.56732046	     16.35707522	      0.00000000	     -0.00751592	      0.00000000	      0.15535838	    -13.32314184	     -2.30114275	      2.33182280
      0.35416667	      3.03156807	     -1.24228507	     -2.07322999	     -0.40692927	      1.03813746	      0.29389648	     16.60503231	      1.16855489	     -3.01250624	    -59.39370601	     13.98596276	    -10.74254182	     -6.21608051	     -6.29166389	      0.06014949	     -4.31930893	     -0.25375671	      1.48800365	      0.57112488	     16.49881413	      0.00000000	     -0.00733546	      0.00000000	      0.29455071	    -13.27903225	     -2.18466620	      2.29116040
      0.35833333	      3.11591024	     -1.66295529	     -1.80543000	     -0.40133568	      1.03850013	      0.29344315	     16.77433216	      1.53650570	     -3.39794274	    -58.45043612	     14.36252200	    -10.60944153	     -6.39835936	     -6.82678243	     -0.40969497	     -4.34917583	      0.00797746	      1.56821596	      0.65710802	     16.79113943	      0.00000000	     -0.00760300	      0.00000000	      0.38208330	    -13.37071440	     -1.55918882	      1.99918427
      0.36250000	      3.12899808	     -1.63865920	     -1.70165848	     -0.39612261	      1.03874188	      0.29342062	     17.14341526	      1.51800457	     -3.42463978	    -57.67005771	     14.48974430	    -10.64545464	     -6.42343933	     -7.15851918	     -0.37878602	     -4.35764960	     -0.00140741	      1.51880327	      0.61003382	     16.80842175	      0.00000000	     -0.00727266	      0.00000000	      0.49853999	    -13.38778736	     -1.59714718	      1.97740185
      0.36666667	      3.28202494	     -1.94996588	     -1.42501877	     -0.39052390	      1.03913663	      0.29304382	     17.20698593	      1.76322318	     -3.80393283	    -56.66204615	     14.82471489	    -10.78866817	     -6.66993594	     -7.77107992	     -0.73850543	     -4.34732923	      0.27149507	      1.60369896	      0.66926894	     17.09715115	      0.00000000	     -0.00735343	      0.00000000	      0.65034572	    -13.51698768	     -1.15748862	      1.74959695
